# AST/ASF file generated using VICON BodyLanguage
# -----------------------------------------------
:version 1.10
:name VICON
:units
  mass 1.0
  length 0.45
  angle deg
:documentation
   .ast/.asf automatically generated from VICON data using
   VICON BodyBuilder and BodyLanguage model FoxedUp or BRILLIANT.MOD
:root
   order TX TY TZ RX RY RZ
   axis XYZ
   position 0 0 0  
   orientation 0 0 0 
:bonedata
  begin
     id 1 
     name lhipjoint
     direction 0.611823 -0.767273 0.19226 
     length 2.47422 
     axis 0 0 0  XYZ
  end
  begin
     id 2 
     name lfemur
     direction 0.34202 -0.939693 0  
     length 7.40835  
     axis 0 0 20  XYZ
    dof rx ry rz
    limits (-160.0 20.0)
           (-70.0 70.0)
           (-60.0 70.0)
  end
  begin
     id 3 
     name ltibia
     direction 0.34202 -0.939693 0   
     length 8.03679   
     axis 0 0 20   XYZ
    dof rx
    limits (-10.0 170.0)
  end
  begin
     id 4 
     name lfoot
     direction 0.0883598 -0.242766 0.966052   
     length 2.06694   
     axis -90 7.62852e-016 20   XYZ
    dof rx rz
    limits (-45.0 90.0)
           (-70.0 20.0)
  end
  begin
     id 5 
     name ltoes
     direction 1.53617e-011 -4.21699e-011 1   
     length 1.03711   
     axis -90 7.62852e-016 20   XYZ
    dof rx
    limits (-90.0 20.0)
  end
  begin
     id 6 
     name rhipjoint
     direction -0.590066 -0.783143 0.196236   
     length 2.42408  
     axis 0 0 0  XYZ 
  end
  begin
     id 7 
     name rfemur
     direction -0.34202 -0.939693 0   
     length 7.88987   
     axis 0 0 -20   XYZ
    dof rx ry rz
    limits (-160.0 20.0)
           (-70.0 70.0)
           (-70.0 60.0)
  end
  begin
     id 8 
     name rtibia
     direction -0.34202 -0.939693 0   
     length 7.87584   
     axis 0 0 -20   XYZ
    dof rx
    limits (-10.0 170.0)
 end
 begin
     id 9 
     name rfoot
     direction -0.130476 -0.358481 0.924374   
     length 2.21745  
     axis -90 -7.62852e-016 -20   XYZ
    dof rx rz
    limits (-45.0 90.0)
           (-20.0 70.0)
  end
  begin
     id 10 
     name rtoes
     direction 8.20695e-005 8.89091e-005 1   
     length 1.09536   
     axis -90 -7.62852e-016 -20   XYZ
    dof rx
    limits (-90.0 20.0)
  end
  begin
     id 11 
     name lowerback
     direction 0.00981224 0.999875 -0.0124197   
     length 1.94808   
     axis 0 0 0   XYZ
    dof rx ry rz
    limits (-20.0 45.0)
           (-30.0 30.0)
           (-30.0 30.0)
  end
  begin
     id 12 
     name upperback
     direction 0.038911 0.999194 0.00981686   
     length 1.94415   
     axis 0 0 0   XYZ
    dof rx ry rz
    limits (-20.0 45.0)
           (-30.0 30.0)
           (-30.0 30.0)
  end
  begin
     id 13 
     name thorax
     direction 0.0330692 0.999334 0.0154389   
     length 1.94117   
     axis 0 0 0   XYZ
    dof rx ry rz
    limits (-20.0 45.0)
           (-30.0 30.0)
           (-30.0 30.0)
  end
  begin
     id 14 
     name lowerneck
     direction -0.0374305 0.99415 0.10132   
     length 1.87291   
     axis 0 0 0   XYZ
    dof rx ry rz
    limits (-20.0 45.0)
           (-30.0 30.0)
           (-30.0 30.0)
  end
  begin
     id 15 
     name upperneck
     direction 0.0120692 0.985979 -0.166431   
     length 1.89248   
     axis 0 0 0   XYZ
    dof rx ry rz
    limits (-20.0 45.0)
           (-30.0 30.0)
           (-30.0 30.0)
  end
  begin
     id 16
     name head
     direction 0.00629908 0.997708 -0.06737  
     length 1.90559  
     axis 0 0 0   XYZ
    dof rx ry rz
    limits (-20.0 45.0)
           (-30.0 30.0)
           (-30.0 30.0)
  end
  begin
     id 17 
     name lclavicle
     direction 0.961536 0.27308 -0.0295863  
     length 3.52757  
     axis 0 0 0   XYZ
    dof ry rz
    limits (-20.0 10.0)
           (0.0 20.0)
  end
  begin
     id 18 
     name lhumerus
     direction 1 -4.48969e-011 2.61153e-029   
     length 5.14845   
     axis 180 -30 -90   XYZ
    dof rx ry rz
    limits (-60.0 90.0)
           (-90.0 90.0)
           (-90.0 90.0)
  end
  begin
     id 19
     name lradius
     direction 1 -4.4896e-011 -3.37549e-027   
     length 3.43674   
     axis 180 -30 -90   XYZ
    dof rx
    limits (-10.0 170.0)
  end
  begin
     id 20
     name lwrist
     direction 1 -4.48969e-011 2.56952e-028   
     length 1.71837   
     axis -5.12785e-016 90 90   XYZ
    dof ry
    limits (-180.0 0.0)
 end
  begin
     id 21 
     name lhand
     direction 1 -4.49094e-011 5.13905e-028   
     length 0.588709   
     axis -3.27915e-016 90 90   XYZ
    dof rx rz
    limits (-90.0 90.0)
           (-45.0 45.0)
  end
  begin
     id 22 
     name lfingers
     direction 1 -4.48821e-011 1.02781e-027   
     length 0.474633   
     axis -6.5583e-016 90 90   XYZ
    dof rx
    limits (0.0 90.0)
  end
  begin
     id 23
     name lthumb
     direction 0.707107 -6.34922e-011 0.707107   
     length 0.68148   
     axis -90 45 2.85299e-015   XYZ
    dof rx rz
    limits (-45.0 45.0)
           (-45.0 45.0)
  end
  begin
     id 24 
     name rclavicle
     direction -0.940964 0.333844 -0.0559866   
     length 3.55948  
     axis 0 0 0   XYZ 
    dof ry rz
    limits (-10.0 20.0)
           (-20.0 0.0)
  end
  begin
     id 25 
     name rhumerus
     direction -1 -4.48973e-011 3.15259e-027  
     length 5.42185   
     axis 180 30 90   XYZ
    dof rx ry rz
    limits (-90.0 60.0)
           (-90.0 90.0)
           (-90.0 90.0)
  end
  begin
     id 26 
     name rradius
     direction -1 -4.48954e-011 -2.56271e-027   
     length 3.51317   
     axis 180 30 90   XYZ
    dof rx
    limits (-10.0 170.0)
  end
  begin
     id 27 
     name rwrist
     direction -1 -4.48943e-011 2.56952e-028   
     length 1.75658   
     axis -5.12785e-016 -90 -90   XYZ
    dof ry
    limits (-180.0 0.0)
  end
  begin
     id 28
     name rhand
     direction -1 -4.4912e-011 5.13905e-028   
     length 0.663187   
     axis -3.27915e-016 -90 -90   XYZ
    dof rx rz
    limits (-90.0 90.0)
           (-45.0 45.0)
  end
  begin
     id 29
     name rfingers
     direction -1 -4.48914e-011 1.02781e-027   
     length 0.534679   
     axis -6.5583e-016 -90 -90   XYZ
    dof rx
    limits (0.0 90.0)
  end
  begin
     id 30
     name rthumb
     direction -0.707107 -6.35033e-011 0.707107   
     length 0.767695   
     axis -90 -45 -2.85299e-015   XYZ
    dof rx rz
    limits (-45.0 45.0)
           (-45.0 45.0)
  end
:hierarchy
  begin
    root lhipjoint rhipjoint lowerback
    lhipjoint lfemur
    lfemur ltibia
    ltibia lfoot
    lfoot ltoes
    rhipjoint rfemur
    rfemur rtibia
    rtibia rfoot
    rfoot rtoes
    lowerback upperback
    upperback thorax
    thorax lowerneck lclavicle rclavicle
    lowerneck upperneck
    upperneck head
    lclavicle lhumerus
    lhumerus lradius
    lradius lwrist
    lwrist lhand lthumb
    lhand lfingers
    rclavicle rhumerus
    rhumerus rradius
    rradius rwrist
    rwrist rhand rthumb
    rhand rfingers
  end

#!OML:ASF F:\VICON\USERDATA\INSTALL\Justin_a\Justin_a.ASF
:FULLY-SPECIFIED
:DEGREES
646
root 10.2975 17.7804 6.52276 -540.408 -68.7943 551.295
lowerback 2.89375 2.6214 -3.28497
upperback -0.0426481 3.39712 0.898165
thorax -1.91049 1.7307 2.60231
lowerneck -10.0347 -4.6672 -6.22234
upperneck 37.9988 -9.00565 2.93007
head 15.4469 -5.03546 0.720216
rclavicle -3.67752e-015 -1.03368e-014
rhumerus -32.3952 -2.10348 -86.8209
rradius 43.2305
rwrist -2.84172
rhand -29.3886 17.4643
rfingers 7.12502
rthumb -2.727 -12.498
lclavicle -3.67752e-015 -1.03368e-014
lhumerus -41.0272 17.2713 73.4891
lradius 38.5545
lwrist 10.6272
lhand -20.4459 27.1265
lfingers 7.12502
lthumb 5.90937 57.0241
rfemur -5.24422 -3.6455 24.3501
rtibia 39.55
rfoot -19.9275 -13.4879
rtoes -30.0414
lfemur -28.7394 -7.40661 -2.04805
ltibia 29.8804
lfoot -7.94115 14.1785
ltoes -3.67719
647
root 10.3977 17.7774 6.46239 -540.77 -68.0578 551.724
lowerback 3.00359 2.63502 -3.18806
upperback -0.122222 3.41442 0.888155
thorax -2.04884 1.74166 2.5294
lowerneck -9.97004 -4.2271 -5.92175
upperneck 37.7913 -8.36427 2.89919
head 15.2631 -4.73069 0.767984
rclavicle -2.32578e-014 1.39149e-014
rhumerus -32.2074 -1.57162 -87.3525
rradius 43.4679
rwrist -2.98108
rhand -29.1934 17.2961
rfingers 7.12502
rthumb -2.53851 -12.6685
lclavicle -2.32578e-014 1.39149e-014
lhumerus -41.216 17.5789 73.1149
lradius 38.1883
lwrist 10.4457
lhand -20.5438 27.1117
lfingers 7.12502
lthumb 5.81478 57.0119
rfemur -5.05052 -3.31785 24.7346
rtibia 38.8966
rfoot -21.1094 -13.0923
rtoes -30.6272
lfemur -28.7102 -9.07142 -0.727097
ltibia 30.633
lfoot -11.4644 13.9533
ltoes 19.3214
648
root 10.4961 17.7447 6.42486 -541.496 -67.3072 552.617
lowerback 3.05362 2.68435 -2.66135
upperback -0.139287 3.49843 0.959572
thorax -2.07279 1.77866 2.30128
lowerneck -10.1203 -4.33804 -5.53931
upperneck 37.7471 -8.51083 2.61059
head 15.2454 -4.77277 0.552334
rclavicle 8.00108e-014 1.19271e-015
rhumerus -31.8667 -1.34837 -87.6283
rradius 43.6202
rwrist -3.12472
rhand -28.9501 17.2878
rfingers 7.12502
rthumb -2.30347 -12.6795
lclavicle 8.00108e-014 1.19271e-015
lhumerus -41.1449 17.9419 72.9729
lradius 37.6857
lwrist 10.0058
lhand -20.4446 26.9995
lfingers 7.12502
lthumb 5.91062 56.8971
rfemur -4.98312 -3.13989 25.2209
rtibia 38.2052
rfoot -22.0237 -12.6157
rtoes -31.3529
lfemur -29.446 -9.49263 0.0336838
ltibia 31.7648
lfoot -10.3074 15.1739
ltoes 13.8614
649
root 10.5996 17.7036 6.385 -541.897 -66.3324 553.127
lowerback 3.13003 2.76316 -2.47155
upperback -0.0762407 3.61171 1.194
thorax -2.06117 1.83284 2.42786
lowerneck -10.3816 -4.26022 -5.60343
upperneck 37.6757 -8.27525 2.44263
head 15.2506 -4.69444 0.524448
rclavicle -6.80837e-014 1.59028e-014
rhumerus -31.4735 -0.860026 -87.6965
rradius 43.8565
rwrist -3.14294
rhand -28.85 17.2609
rfingers 7.12502
rthumb -2.2068 -12.7074
lclavicle -6.80837e-014 1.59028e-014
lhumerus -41.1032 18.681 73.0376
lradius 37.2548
lwrist 9.59756
lhand -20.1711 26.7422
lfingers 7.12502
lthumb 6.17462 56.6323
rfemur -4.98416 -2.74685 25.6052
rtibia 37.6286
rfoot -22.9205 -12.0297
rtoes -31.3634
lfemur -30.1163 -9.54547 0.531644
ltibia 32.8537
lfoot -8.26913 16.6933
ltoes 3.00284
650
root 10.6955 17.7001 6.35511 -542.137 -65.7417 553.559
lowerback 3.27793 2.63099 -2.05434
upperback -0.0323049 3.44973 1.41429
thorax -2.07768 1.7472 2.4245
lowerneck -10.7889 -4.06199 -5.93766
upperneck 37.5808 -7.80927 2.40476
head 15.288 -4.53442 0.631976
rclavicle -2.36057e-014 7.95139e-016
rhumerus -31.0614 0.34246 -87.7796
rradius 44.178
rwrist -3.43008
rhand -28.9786 17.1566
rfingers 7.12502
rthumb -2.33106 -12.8104
lclavicle -2.36057e-014 7.95139e-016
lhumerus -41.1957 19.7152 73.0608
lradius 36.9307
lwrist 9.21645
lhand -19.7418 26.6254
lfingers 7.12502
lthumb 6.58905 56.5029
rfemur -5.15139 -2.8434 25.9596
rtibia 37.1646
rfoot -23.726 -11.5436
rtoes -31.1191
lfemur -30.7893 -10.3199 1.26046
ltibia 33.9297
lfoot -9.10865 16.9965
ltoes 5.42199
651
root 10.7852 17.6906 6.3077 -542.584 -64.9141 554.104
lowerback 3.38482 2.68919 -1.72866
upperback 0.0435514 3.53839 1.59903
thorax -2.05676 1.78652 2.42439
lowerneck -11.1259 -3.92214 -6.06912
upperneck 37.5106 -7.48859 2.35334
head 15.3174 -4.41157 0.677773
rclavicle -2.78795e-014 -3.18055e-015
rhumerus -30.7956 1.13076 -87.8593
rradius 44.5422
rwrist -3.73992
rhand -28.9956 17.0102
rfingers 7.12502
rthumb -2.34745 -12.9566
lclavicle -2.78795e-014 -3.18055e-015
lhumerus -41.2026 20.381 73.1486
lradius 36.607
lwrist 8.9324
lhand -20.0993 26.4351
lfingers 7.12502
lthumb 6.24396 56.323
rfemur -5.24772 -2.72782 26.4824
rtibia 36.8825
rfoot -24.4408 -11.3862
rtoes -30.9572
lfemur -31.2162 -10.628 1.94759
ltibia 34.9729
lfoot -9.26272 17.1081
ltoes 3.75256
652
root 10.8642 17.6862 6.28102 -542.236 -64.2915 553.881
lowerback 3.45668 2.73633 -1.42075
upperback 0.0511367 3.61071 1.53401
thorax -2.06986 1.81883 2.17828
lowerneck -11.3821 -3.84863 -5.8807
upperneck 37.452 -7.33237 2.20601
head 15.3214 -4.32936 0.603107
rclavicle -5.5113e-014 -5.96354e-015
rhumerus -30.529 1.20626 -88.0181
rradius 44.6554
rwrist -3.61006
rhand -29.1511 17.0978
rfingers 7.12502
rthumb -2.49768 -12.8674
lclavicle -5.5113e-014 -5.96354e-015
lhumerus -41.0851 20.741 73.2128
lradius 36.225
lwrist 8.82024
lhand -20.2035 26.057
lfingers 7.12502
lthumb 6.1434 55.9479
rfemur -5.42459 -2.99249 26.5267
rtibia 36.5416
rfoot -25.0122 -11.1785
rtoes -30.8447
lfemur -31.9294 -11.0248 2.10265
ltibia 36.2288
lfoot -10.0189 16.9402
ltoes 4.64742
653
root 10.9413 17.6869 6.25211 -540.037 -63.5996 552.035
lowerback 3.11129 2.80205 -1.98379
upperback -0.0481341 3.68185 1.3105
thorax -2.00284 1.86151 2.2734
lowerneck -11.5343 -3.78479 -5.71325
upperneck 37.315 -7.1877 2.06425
head 15.265 -4.25574 0.537287
rclavicle -3.91109e-014 1.66979e-014
rhumerus -30.2572 1.48233 -88.1547
rradius 44.6661
rwrist -3.62815
rhand -29.4234 16.9204
rfingers 7.12502
rthumb -2.76058 -13.0415
lclavicle -3.91109e-014 1.66979e-014
lhumerus -41.0304 21.2429 73.2526
lradius 35.9009
lwrist 8.73985
lhand -19.9397 25.6204
lfingers 7.12502
lthumb 6.39798 55.5038
rfemur -6.12018 -3.17184 25.817
rtibia 36.3163
rfoot -25.3896 -10.8372
rtoes -30.6063
lfemur -32.9814 -11.0279 1.31256
ltibia 37.5563
lfoot -11.0818 16.5875
ltoes 5.69631
654
root 11.0173 17.6766 6.18343 -540.299 -62.8859 552.114
lowerback 3.24628 2.90703 -2.32581
upperback 0.0800429 3.80845 1.5079
thorax -1.98985 1.92665 2.65662
lowerneck -11.569 -3.73597 -5.49155
upperneck 37.1023 -7.05002 1.84163
head 15.1386 -4.18936 0.432629
rclavicle -5.81445e-015 2.46493e-014
rhumerus -30.0756 1.99359 -88.1861
rradius 44.7469
rwrist -3.98234
rhand -29.4742 16.7191
rfingers 7.12502
rthumb -2.80966 -13.2421
lclavicle -5.81445e-015 2.46493e-014
lhumerus -40.9641 21.5121 73.4762
lradius 35.5723
lwrist 8.7468
lhand -19.8998 25.2217
lfingers 7.12502
lthumb 6.43655 55.1039
rfemur -5.87143 -2.9258 26.3055
rtibia 36.1863
rfoot -25.634 -11.1357
rtoes -30.6306
lfemur -33.1906 -10.5215 1.18179
ltibia 38.9382
lfoot -12.2348 15.641
ltoes 5.28424
655
root 11.0923 17.6587 6.15259 -541.903 -62.0286 553.837
lowerback 3.51226 3.04986 -1.28725
upperback 0.1171 4.03339 1.7441
thorax -2.06039 2.02709 2.29398
lowerneck -11.6489 -3.69087 -5.28992
upperneck 36.9947 -6.95675 1.69303
head 15.0824 -4.13712 0.351435
rclavicle 6.38596e-014 -2.98177e-014
rhumerus -29.9056 2.2045 -88.1802
rradius 44.7959
rwrist -4.04403
rhand -29.2337 16.5277
rfingers 7.12502
rthumb -2.57737 -13.4365
lclavicle 6.38596e-014 -2.98177e-014
lhumerus -40.879 21.7306 73.6096
lradius 35.2265
lwrist 8.53753
lhand -19.6313 25.0292
lfingers 7.12502
lthumb 6.6958 54.9033
rfemur -5.95578 -2.81524 27.4723
rtibia 36.1818
rfoot -25.697 -11.3397
rtoes -30.7235
lfemur -33.7041 -9.84009 1.79599
ltibia 40.4112
lfoot -13.0675 14.4442
ltoes 3.98377
656
root 11.1594 17.6616 6.1358 -540.886 -61.2207 553.071
lowerback 3.47384 3.215 -1.19844
upperback 0.0431764 4.25717 1.61154
thorax -2.10964 2.13891 2.09519
lowerneck -11.6968 -3.68112 -5.24523
upperneck 36.8484 -6.94423 1.73893
head 15.0219 -4.11416 0.366793
rclavicle -2.48481e-015 -1.59028e-014
rhumerus -29.6708 2.20527 -88.1429
rradius 44.7047
rwrist -3.89092
rhand -29.0806 16.4521
rfingers 7.12502
rthumb -2.42951 -13.5138
lclavicle -2.48481e-015 -1.59028e-014
lhumerus -40.7017 21.851 73.9625
lradius 34.9697
lwrist 8.73834
lhand -19.792 25.288
lfingers 7.12502
lthumb 6.5406 55.167
rfemur -6.56362 -2.58594 27.278
rtibia 36.1519
rfoot -25.7842 -11.0964
rtoes -29.9866
lfemur -34.6059 -9.18884 1.03784
ltibia 41.8509
lfoot -13.783 13.3786
ltoes 2.46276
657
root 11.2213 17.6695 6.11739 -540.119 -60.3629 552.571
lowerback 3.27851 3.2929 -1.11607
upperback 0.0807666 4.36434 1.62068
thorax -1.96125 2.19022 2.06582
lowerneck -11.8027 -3.56674 -5.17358
upperneck 36.6499 -6.6704 1.53484
head 14.9241 -4.00675 0.316699
rclavicle -3.32964e-015 -3.04141e-014
rhumerus -29.1858 2.5589 -88.0803
rradius 44.4184
rwrist -3.92156
rhand -28.9891 16.4794
rfingers 7.12502
rthumb -2.34122 -13.4875
lclavicle -3.32964e-015 -3.04141e-014
lhumerus -40.518 22.4488 74.3522
lradius 34.7803
lwrist 8.89378
lhand -20.5372 25.9249
lfingers 7.12502
lthumb 5.82116 55.8249
rfemur -7.16263 -2.22795 27.1854
rtibia 36.2106
rfoot -25.9699 -10.5001
rtoes -27.5172
lfemur -35.4553 -8.45216 0.317949
ltibia 43.2437
lfoot -14.4308 12.2755
ltoes 0.754736
658
root 11.2775 17.6782 6.06904 -540.123 -59.8238 552.34
lowerback 3.41609 3.22298 -1.32436
upperback 0.305229 4.25958 1.81176
thorax -1.83269 2.13588 2.38297
lowerneck -11.9237 -3.39427 -5.2663
upperneck 36.4449 -6.30681 1.44444
head 14.8369 -3.869 0.356255
rclavicle -1.7344e-014 -6.16232e-015
rhumerus -28.6412 3.15733 -88.0791
rradius 43.9511
rwrist -3.78154
rhand -29.3239 16.5333
rfingers 7.12502
rthumb -2.66455 -13.4298
lclavicle -1.7344e-014 -6.16232e-015
lhumerus -40.3808 23.2212 74.6528
lradius 34.4951
lwrist 8.73555
lhand -20.9313 26.2574
lfingers 7.12502
lthumb 5.44068 56.1675
rfemur -7.03948 -1.6932 27.4272
rtibia 36.3941
rfoot -26.2002 -10.7119
rtoes -24.8017
lfemur -35.7195 -7.78113 -0.394593
ltibia 44.5358
lfoot -15.1248 10.8382
ltoes -1.63676
